<svg width="691" height="880" viewBox="0 0 691 880" fill="none" xmlns="http://www.w3.org/2000/svg">
<g opacity="0.1">
<path fill-rule="evenodd" clip-rule="evenodd" d="M57.9621 454.846C41.7231 413.621 61.9784 367.037 103.204 350.798L145.953 333.958C293.606 275.796 460.453 348.343 518.615 495.996L526.716 516.562L546.424 508.798C641.074 471.515 687.578 364.562 650.295 269.913L642.194 249.347C615.692 259.787 585.745 246.765 575.306 220.264C564.866 193.762 577.887 163.815 604.389 153.376L652.375 134.473C678.877 124.034 708.824 137.055 719.263 163.557L746.266 232.108C804.428 379.762 731.882 546.608 584.228 604.77L468.548 650.338L422.643 533.801C385.359 439.151 278.407 392.647 183.757 429.93L180.996 431.018C170.69 435.078 165.626 446.724 169.686 457.03L236.56 626.801C237.324 628.74 239.515 629.693 241.455 628.929L333.915 592.508C360.417 582.069 390.364 595.09 400.803 621.592C411.243 648.094 398.221 678.04 371.72 688.48L211.071 751.761C193.787 758.569 174.257 750.077 167.448 732.793L57.9621 454.846Z" fill="#8282FF"/>
<path d="M422.643 533.801C385.36 439.151 278.407 392.647 183.757 429.93L180.996 431.018C170.69 435.078 165.626 446.724 169.686 457.03L236.56 626.801C237.324 628.74 239.515 629.693 241.455 628.929L333.915 592.508C360.417 582.069 390.364 595.09 400.803 621.592C411.243 648.094 398.221 678.04 371.72 688.48L211.071 751.761C193.787 758.569 174.257 750.077 167.448 732.793L57.9621 454.846C41.7231 413.621 61.9784 367.037 103.204 350.798L145.953 333.958C216.097 307.648 337.178 316.836 422.643 533.801Z" fill="#292997"/>
</g>
</svg>
