<svg width="20" height="20" viewBox="0 0 20 20" fill="none" xmlns="http://www.w3.org/2000/svg">
<path fill-rule="evenodd" clip-rule="evenodd" d="M1 7C1 5.89543 1.89543 5 3 5H4.14541C8.10157 5 11.3087 8.2071 11.3087 12.1633V12.7143H11.8367C14.3727 12.7143 16.4286 10.6585 16.4286 8.12245V7.57143C15.7185 7.57143 15.1429 6.99579 15.1429 6.28571C15.1429 5.57563 15.7185 5 16.4286 5H17.7143C18.4244 5 19 5.57563 19 6.28571V8.12245C19 12.0786 15.7929 15.2857 11.8367 15.2857H8.73725V12.1633C8.73725 9.62726 6.68141 7.57143 4.14541 7.57143H4.07143C3.79529 7.57143 3.57143 7.79529 3.57143 8.07143V12.6202C3.57143 12.6722 3.61355 12.7143 3.66551 12.7143H6.14286C6.85294 12.7143 7.42857 13.2899 7.42857 14C7.42857 14.7101 6.85294 15.2857 6.14286 15.2857H1.83851C1.37541 15.2857 1 14.9103 1 14.4472V7Z" fill="#56DB23"/>
<path d="M8.73725 12.1633C8.73725 9.62726 6.68141 7.57143 4.14541 7.57143H4.07143C3.79529 7.57143 3.57143 7.79529 3.57143 8.07143V12.6202C3.57143 12.6722 3.61355 12.7143 3.66551 12.7143H6.14286C6.85294 12.7143 7.42857 13.2899 7.42857 14C7.42857 14.7101 6.85294 15.2857 6.14286 15.2857H1.83851C1.37541 15.2857 1 14.9103 1 14.4472V7C1 5.89543 1.89543 5 3 5H4.14541C6.01276 5.03061 8.73725 6.35 8.73725 12.1633Z" fill="#3CAA10"/>
</svg>
