<svg width="100" height="100" viewBox="0 0 100 100" fill="none" xmlns="http://www.w3.org/2000/svg">
<path fill-rule="evenodd" clip-rule="evenodd" d="M12.5 37.5001C12.5 32.8977 16.231 29.1667 20.8333 29.1667H25.6059C42.0899 29.1667 55.4528 42.5297 55.4528 59.0137V61.3096H57.6531C68.2197 61.3096 76.7857 52.7436 76.7857 42.177V39.881C73.827 39.881 71.4286 37.4826 71.4286 34.5239C71.4286 31.5652 73.827 29.1667 76.7857 29.1667H82.1429C85.1015 29.1667 87.5 31.5652 87.5 34.5239V42.177C87.5 58.661 74.1371 72.0239 57.6531 72.0239H44.7385V59.0137C44.7385 48.447 36.1725 39.881 25.6059 39.881H25.2976C24.147 39.881 23.2143 40.8138 23.2143 41.9644V60.9176C23.2143 61.1341 23.3898 61.3096 23.6063 61.3096H33.9286C36.8872 61.3096 39.2857 63.7081 39.2857 66.6668C39.2857 69.6254 36.8872 72.0239 33.9286 72.0239H15.9938C14.0642 72.0239 12.5 70.4597 12.5 68.5301V37.5001Z" fill="#6962B3"/>
<path d="M44.7385 59.0137C44.7385 48.447 36.1725 39.881 25.6059 39.881H25.2976C24.147 39.881 23.2143 40.8138 23.2143 41.9644V60.9176C23.2143 61.1341 23.3898 61.3096 23.6063 61.3096H33.9286C36.8872 61.3096 39.2857 63.7081 39.2857 66.6668C39.2857 69.6254 36.8872 72.0239 33.9286 72.0239H15.9938C14.0642 72.0239 12.5 70.4597 12.5 68.5301V37.5001C12.5 32.8977 16.231 29.1667 20.8333 29.1667H25.6059C33.3865 29.2943 44.7385 34.7918 44.7385 59.0137Z" fill="#464274"/>
</svg>
