<svg width="48" height="48" viewBox="0 0 48 48" fill="none" xmlns="http://www.w3.org/2000/svg">
<path fill-rule="evenodd" clip-rule="evenodd" d="M6 18C6 15.7909 7.79086 14 10 14H12.2908C20.2031 14 26.6173 20.4142 26.6173 28.3265V29.4286H27.6735C32.7455 29.4286 36.8571 25.3169 36.8571 20.2449V19.1429C35.437 19.1429 34.2857 17.9916 34.2857 16.5714C34.2857 15.1513 35.437 14 36.8571 14H39.4286C40.8487 14 42 15.1513 42 16.5714V20.2449C42 28.1572 35.5858 34.5714 27.6735 34.5714H21.4745V28.3265C21.4745 23.2545 17.3628 19.1429 12.2908 19.1429H12.1429C11.5906 19.1429 11.1429 19.5906 11.1429 20.1429V29.2404C11.1429 29.3443 11.2271 29.4286 11.331 29.4286H16.2857C17.7059 29.4286 18.8571 30.5798 18.8571 32C18.8571 33.4202 17.7059 34.5714 16.2857 34.5714H7.67702C6.75083 34.5714 6 33.8206 6 32.8944V18Z" fill="#56DB23"/>
<path d="M21.4745 28.3265C21.4745 23.2545 17.3628 19.1429 12.2908 19.1429H12.1429C11.5906 19.1429 11.1429 19.5906 11.1429 20.1429V29.2404C11.1429 29.3443 11.2271 29.4286 11.331 29.4286H16.2857C17.7059 29.4286 18.8571 30.5798 18.8571 32C18.8571 33.4202 17.7059 34.5714 16.2857 34.5714H7.67702C6.75083 34.5714 6 33.8206 6 32.8944V18C6 15.7909 7.79086 14 10 14H12.2908C16.0255 14.0612 21.4745 16.7 21.4745 28.3265Z" fill="#3CAA10"/>
</svg>
