<svg width="56" height="32" viewBox="0 0 56 32" fill="none" xmlns="http://www.w3.org/2000/svg">
<rect x="1" y="1" width="54" height="30" rx="15" fill="#E0E0EF" stroke="#25233A" stroke-width="2"/>
<rect x="8" y="8" width="16" height="16" rx="8" fill="#25233A"/>
<path d="M40 23.5C37.9167 23.5 36.1458 22.7708 34.6875 21.3125C33.2292 19.8542 32.5 18.0833 32.5 16C32.5 13.9167 33.2292 12.1458 34.6875 10.6875C36.1458 9.22917 37.9167 8.5 40 8.5C40.1944 8.5 40.3856 8.50694 40.5733 8.52083C40.7606 8.53472 40.9444 8.55556 41.125 8.58333C40.5556 8.98611 40.1008 9.51028 39.7608 10.1558C39.4203 10.8019 39.25 11.5 39.25 12.25C39.25 13.5 39.6875 14.5625 40.5625 15.4375C41.4375 16.3125 42.5 16.75 43.75 16.75C44.5139 16.75 45.2153 16.5797 45.8542 16.2392C46.4931 15.8992 47.0139 15.4444 47.4167 14.875C47.4444 15.0556 47.4653 15.2394 47.4792 15.4267C47.4931 15.6144 47.5 15.8056 47.5 16C47.5 18.0833 46.7708 19.8542 45.3125 21.3125C43.8542 22.7708 42.0833 23.5 40 23.5Z" fill="#25233A"/>
</svg>
