<svg width="56" height="32" viewBox="0 0 56 32" fill="none" xmlns="http://www.w3.org/2000/svg">
<rect x="1" y="1" width="54" height="30" rx="15" fill="#25233A" stroke="#E0E0EF" stroke-width="2"/>
<rect x="32" y="8" width="16" height="16" rx="8" fill="#E0E0EF"/>
<path d="M16 20.1667C14.8473 20.1667 13.8648 19.7603 13.0525 18.9475C12.2398 18.1353 11.8334 17.1528 11.8334 16C11.8334 14.8473 12.2398 13.8645 13.0525 13.0517C13.8648 12.2395 14.8473 11.8334 16 11.8334C17.1528 11.8334 18.1356 12.2395 18.9484 13.0517C19.7606 13.8645 20.1667 14.8473 20.1667 16C20.1667 17.1528 19.7606 18.1353 18.9484 18.9475C18.1356 19.7603 17.1528 20.1667 16 20.1667ZM7.66671 16.8334C7.4306 16.8334 7.23282 16.7534 7.07337 16.5934C6.91337 16.4339 6.83337 16.2362 6.83337 16C6.83337 15.7639 6.91337 15.5659 7.07337 15.4059C7.23282 15.2464 7.4306 15.1667 7.66671 15.1667H9.33337C9.56948 15.1667 9.76754 15.2464 9.92754 15.4059C10.087 15.5659 10.1667 15.7639 10.1667 16C10.1667 16.2362 10.087 16.4339 9.92754 16.5934C9.76754 16.7534 9.56948 16.8334 9.33337 16.8334H7.66671ZM22.6667 16.8334C22.4306 16.8334 22.2328 16.7534 22.0734 16.5934C21.9134 16.4339 21.8334 16.2362 21.8334 16C21.8334 15.7639 21.9134 15.5659 22.0734 15.4059C22.2328 15.2464 22.4306 15.1667 22.6667 15.1667H24.3334C24.5695 15.1667 24.7673 15.2464 24.9267 15.4059C25.0867 15.5659 25.1667 15.7639 25.1667 16C25.1667 16.2362 25.0867 16.4339 24.9267 16.5934C24.7673 16.7534 24.5695 16.8334 24.3334 16.8334H22.6667ZM16 10.1667C15.7639 10.1667 15.5662 10.0867 15.4067 9.92671C15.2467 9.76726 15.1667 9.56948 15.1667 9.33337V7.66671C15.1667 7.4306 15.2467 7.23254 15.4067 7.07254C15.5662 6.9131 15.7639 6.83337 16 6.83337C16.2362 6.83337 16.4342 6.9131 16.5942 7.07254C16.7537 7.23254 16.8334 7.4306 16.8334 7.66671V9.33337C16.8334 9.56948 16.7537 9.76726 16.5942 9.92671C16.4342 10.0867 16.2362 10.1667 16 10.1667ZM16 25.1667C15.7639 25.1667 15.5662 25.0867 15.4067 24.9267C15.2467 24.7673 15.1667 24.5695 15.1667 24.3334V22.6667C15.1667 22.4306 15.2467 22.2328 15.4067 22.0734C15.5662 21.9134 15.7639 21.8334 16 21.8334C16.2362 21.8334 16.4342 21.9134 16.5942 22.0734C16.7537 22.2328 16.8334 22.4306 16.8334 22.6667V24.3334C16.8334 24.5695 16.7537 24.7673 16.5942 24.9267C16.4342 25.0867 16.2362 25.1667 16 25.1667ZM10.7084 11.875L9.81254 11C9.64587 10.8473 9.56587 10.6528 9.57254 10.4167C9.57976 10.1806 9.65976 9.97921 9.81254 9.81254C9.97921 9.64587 10.1806 9.56254 10.4167 9.56254C10.6528 9.56254 10.8473 9.64587 11 9.81254L11.875 10.7084C12.0278 10.875 12.1042 11.0695 12.1042 11.2917C12.1042 11.5139 12.0278 11.7084 11.875 11.875C11.7223 12.0417 11.5314 12.1214 11.3025 12.1142C11.0731 12.1075 10.875 12.0278 10.7084 11.875ZM21 22.1875L20.125 21.2917C19.9723 21.125 19.8959 20.9273 19.8959 20.6984C19.8959 20.4689 19.9723 20.2778 20.125 20.125C20.2778 19.9584 20.4689 19.8787 20.6984 19.8859C20.9273 19.8925 21.125 19.9723 21.2917 20.125L22.1875 21C22.3542 21.1528 22.4342 21.3473 22.4275 21.5834C22.4203 21.8195 22.3403 22.0209 22.1875 22.1875C22.0209 22.3542 21.8195 22.4375 21.5834 22.4375C21.3473 22.4375 21.1528 22.3542 21 22.1875ZM20.125 11.875C19.9584 11.7223 19.8787 11.5312 19.8859 11.3017C19.8925 11.0728 19.9723 10.875 20.125 10.7084L21 9.81254C21.1528 9.64587 21.3473 9.56587 21.5834 9.57254C21.8195 9.57976 22.0209 9.65976 22.1875 9.81254C22.3542 9.97921 22.4375 10.1806 22.4375 10.4167C22.4375 10.6528 22.3542 10.8473 22.1875 11L21.2917 11.875C21.125 12.0278 20.9306 12.1042 20.7084 12.1042C20.4861 12.1042 20.2917 12.0278 20.125 11.875ZM9.81254 22.1875C9.64587 22.0209 9.56254 21.8195 9.56254 21.5834C9.56254 21.3473 9.64587 21.1528 9.81254 21L10.7084 20.125C10.875 19.9723 11.0731 19.8959 11.3025 19.8959C11.5314 19.8959 11.7223 19.9723 11.875 20.125C12.0417 20.2778 12.1217 20.4689 12.115 20.6984C12.1078 20.9273 12.0278 21.125 11.875 21.2917L11 22.1875C10.8473 22.3542 10.6528 22.4339 10.4167 22.4267C10.1806 22.42 9.97921 22.3403 9.81254 22.1875Z" fill="#E0E0EF"/>
</svg>
